<?xml version="1.0" encoding="utf-8"?>
<!-- Generator: Adobe Illustrator 27.0.0, SVG Export Plug-In . SVG Version: 6.00 Build 0)  -->
<svg version="1.1" id="Шар_1" xmlns="http://www.w3.org/2000/svg" xmlns:xlink="http://www.w3.org/1999/xlink" x="0px" y="0px"
	 viewBox="0 0 1276 1280" style="enable-background:new 0 0 1276 1280;" xml:space="preserve">
<style type="text/css">
	.st0{fill:#FFC580;}
</style>
<g transform="translate(0.000000,1280.000000) scale(0.100000,-0.100000)">
	<path class="st0" d="M11145,12790c-302-78-364-99-510-172c-120-60-213-119-320-203c-44-35-2232-2216-4861-4847L672,2785l-107-405
		c-60-223-116-434-126-470c-26-100-219-818-236-880c-32-123-44-167-122-457L0,271V136V0h136h135l302,81c166,45,325,87,352,94
		c28,8,86,23,130,35s231,62,415,111c184,50,358,96,385,104c28,7,221,59,430,115l380,101l4871,4872c4810,4811,4872,4873,4947,4987
		s170,299,202,395c163,480,55,946-313,1360c-200,225-440,389-687,468c-107,34-157,44-307,62C11242,12801,11192,12802,11145,12790z
		 M10915,12123c69-198,215-426,398-621c37-40,67-77,65-82c-2-4-363-362-803-795s-939-926-1110-1094c-170-169-614-606-985-971
		s-821-809-1000-985c-179-177-806-796-1395-1375C4157,4301,3650,3801,3260,3415C1981,2149,1982,2150,1933,2129c-71-31-189-59-247-59
		c-75,0-113,24-170,105c-130,187-151,289-97,465c18,55,37,138,43,183l11,82l4546,4548c2500,2502,4572,4569,4604,4594
		c64,50,234,153,253,153C10882,12200,10900,12165,10915,12123z M11689,11181c156-100,296-155,438-175l83-11l-30-64
		c-17-35-55-102-86-150c-50-77-563-593-4719-4750L2712,1367l-83-18c-104-23-238-24-308-3c-103,30-168,124-198,287
		c-13,76-12,281,2,295c2,3,10,0,17-6c10-8,176,151,698,666c377,371,984,970,1350,1331c366,360,832,820,1035,1021
		c204,201,681,671,1060,1045c672,662,965,950,1695,1671c195,192,796,784,1335,1315c539,530,1274,1255,1635,1611
		c360,356,657,647,659,648C11611,11230,11647,11208,11689,11181z M1142,2511c-10-151,61-332,210-528c43-56,123-117,178-134
		c84-26,260-28,323-4c15,7,17-2,17-98c0-300,120-528,325-617c28-12,91-29,142-39l91-16l-666-178c-367-98-671-177-677-177
		c-5,1-62,62-125,137c-63,74-141,166-174,204l-58,69l187,702c135,505,193,709,208,726c11,12,21,22,22,22S1145,2549,1142,2511z"/>
</g>
</svg>
